# Tiled2Unity generated file. Do not modify by hand.
# Wavefront file for 'InsideHouse_mesh_0002.obj'

# Vertices (Count = 36)
v -38 -21 0
v -39 -21 0
v -39 -20 0
v -38 -20 0
v -37 -21 0
v -38 -21 0
v -38 -20 0
v -37 -20 0
v -36 -21 0
v -37 -21 0
v -37 -20 0
v -36 -20 0
v -38 -22 0
v -39 -22 0
v -39 -21 0
v -38 -21 0
v -37 -22 0
v -38 -22 0
v -38 -21 0
v -37 -21 0
v -36 -22 0
v -37 -22 0
v -37 -21 0
v -36 -21 0
v -38 -23 0
v -39 -23 0
v -39 -22 0
v -38 -22 0
v -37 -23 0
v -38 -23 0
v -38 -22 0
v -37 -22 0
v -36 -23 0
v -37 -23 0
v -37 -22 0
v -36 -22 0

# Texture cooridinates (Count = 36)
vt 0.8078513 0.06463879
vt 0.8243802 0.06463879
vt 0.8243802 0.09505701
vt 0.8078513 0.09505701
vt 0.7902893 0.06463879
vt 0.8068182 0.06463879
vt 0.8068182 0.09505701
vt 0.7902893 0.09505701
vt 0.7727273 0.06463879
vt 0.7892562 0.06463879
vt 0.7892562 0.09505701
vt 0.7727273 0.09505701
vt 0.8078513 0.03231937
vt 0.8243802 0.03231937
vt 0.8243802 0.06273764
vt 0.8078513 0.06273764
vt 0.7902893 0.03231937
vt 0.8068182 0.03231937
vt 0.8068182 0.06273764
vt 0.7902893 0.06273764
vt 0.7727273 0.03231937
vt 0.7892562 0.03231937
vt 0.7892562 0.06273764
vt 0.7727273 0.06273764
vt 0.8078513 0
vt 0.8243802 0
vt 0.8243802 0.03041828
vt 0.8078513 0.03041828
vt 0.7902893 0
vt 0.8068182 0
vt 0.8068182 0.03041828
vt 0.7902893 0.03041828
vt 0.7727273 0
vt 0.7892562 0
vt 0.7892562 0.03041828
vt 0.7727273 0.03041828

# Normal
vn 0 0 -1

# Mesh description
g InsideHouse_mesh_0002

# Faces
f 1/1/1 2/2/1 3/3/1 4/4/1
f 5/5/1 6/6/1 7/7/1 8/8/1
f 9/9/1 10/10/1 11/11/1 12/12/1
f 13/13/1 14/14/1 15/15/1 16/16/1
f 17/17/1 18/18/1 19/19/1 20/20/1
f 21/21/1 22/22/1 23/23/1 24/24/1
f 25/25/1 26/26/1 27/27/1 28/28/1
f 29/29/1 30/30/1 31/31/1 32/32/1
f 33/33/1 34/34/1 35/35/1 36/36/1

